<svg data-v-fde0c5aa="" xmlns="http://www.w3.org/2000/svg" viewBox="0 0 300 300" class="iconAbove"><!----><defs data-v-fde0c5aa=""><!----></defs><rect data-v-fde0c5aa="" fill="#8143D1" x="0" y="0" width="300px" height="300px" class="logo-background-square"></rect><defs data-v-fde0c5aa=""><!----></defs><g data-v-fde0c5aa="" id="8dd115fa-9ae9-4b11-93ef-5c893cd12a1a" fill="#FFFFFF" transform="matrix(3.652198217214503,0,0,3.652198217214503,18.466076687817246,147.64166305684182)"><path d="M4.33 11.94L7.70 11.94L7.70 16.76L7.70 16.76Q6.99 17.09 6.14 17.24L6.14 17.24L6.14 17.24Q5.29 17.39 4.12 17.39L4.12 17.39L4.12 17.39Q2.65 17.39 1.86 16.98L1.86 16.98L1.86 16.98Q1.08 16.58 0.75 15.60L0.75 15.60L0.75 15.60Q0.42 14.63 0.42 12.81L0.42 12.81L0.42 12.81Q0.42 10.99 0.78 10.02L0.78 10.02L0.78 10.02Q1.15 9.04 2.03 8.63L2.03 8.63L2.03 8.63Q2.91 8.22 4.54 8.22L4.54 8.22L4.54 8.22Q5.25 8.22 6.08 8.33L6.08 8.33L6.08 8.33Q6.92 8.44 7.28 8.58L7.28 8.58L6.93 10.79L6.93 10.79Q6.43 10.68 5.80 10.61L5.80 10.61L5.80 10.61Q5.18 10.53 4.75 10.53L4.75 10.53L4.75 10.53Q3.99 10.53 3.71 10.74L3.71 10.74L3.71 10.74Q3.43 10.95 3.43 11.51L3.43 11.51L3.43 15.13L5.04 15.13L5.04 13.97L4.33 13.97L4.33 11.94ZM12.11 9.97L12.11 9.97Q13.78 9.97 14.55 10.56L14.55 10.56L14.55 10.56Q15.33 11.14 15.33 12.42L15.33 12.42L15.33 17.18L13.93 17.18L13.23 16.48L13.23 16.48Q12.70 16.93 12.09 17.16L12.09 17.16L12.09 17.16Q11.48 17.39 10.85 17.39L10.85 17.39L10.85 17.39Q9.58 17.39 8.99 16.81L8.99 16.81L8.99 16.81Q8.40 16.24 8.40 15.01L8.40 15.01L8.40 15.01Q8.40 14.15 8.76 13.65L8.76 13.65L8.76 13.65Q9.13 13.15 9.93 12.92L9.93 12.92L9.93 12.92Q10.74 12.70 12.11 12.70L12.11 12.70L12.53 12.70L12.53 12.07L12.53 12.07Q12.32 12.01 11.83 12.01L11.83 12.01L11.83 12.01Q10.53 12.01 9.06 12.38L9.06 12.38L8.72 10.44L8.72 10.44Q10.29 9.97 12.11 9.97L12.11 9.97ZM11.56 15.50L11.56 15.50Q12.11 15.50 12.32 15.39L12.32 15.39L12.32 15.39Q12.53 15.27 12.53 14.97L12.53 14.97L12.53 14.10L11.94 14.10L11.94 14.10Q11.40 14.10 11.19 14.22L11.19 14.22L11.19 14.22Q10.98 14.35 10.98 14.69L10.98 14.69L10.98 15.50L11.56 15.50ZM25.48 9.97L25.48 9.97Q26.46 9.97 27.02 10.39L27.02 10.39L27.02 10.39Q27.58 10.82 27.58 11.58L27.58 11.58L27.58 17.18L24.78 17.18L24.78 12.28L24.07 12.28L24.07 12.28Q23.77 12.28 23.65 12.37L23.65 12.37L23.65 12.37Q23.52 12.46 23.52 12.67L23.52 12.67L23.52 17.18L20.72 17.18L20.72 12.28L20.01 12.28L20.01 12.28Q19.71 12.28 19.59 12.37L19.59 12.37L19.59 12.37Q19.46 12.46 19.46 12.67L19.46 12.67L19.46 17.18L16.66 17.18L16.66 10.18L18.06 10.18L18.76 10.88L18.76 10.88Q20.02 9.97 21.42 9.97L21.42 9.97L21.42 9.97Q22.04 9.97 22.49 10.14L22.49 10.14L22.49 10.14Q22.95 10.30 23.20 10.63L23.20 10.63L23.20 10.63Q24.28 9.97 25.48 9.97L25.48 9.97ZM32.62 15.34L32.62 15.34Q33.78 15.34 35.11 14.98L35.11 14.98L35.45 16.91L35.45 16.91Q34.01 17.39 32.34 17.39L32.34 17.39L32.34 17.39Q30.44 17.39 29.53 16.48L29.53 16.48L29.53 16.48Q28.63 15.58 28.63 13.68L28.63 13.68L28.63 13.68Q28.63 11.76 29.53 10.86L29.53 10.86L29.53 10.86Q30.42 9.97 32.34 9.97L32.34 9.97L32.34 9.97Q33.63 9.97 34.33 10.19L34.33 10.19L34.33 10.19Q35.03 10.40 35.33 10.91L35.33 10.91L35.33 10.91Q35.63 11.42 35.63 12.35L35.63 12.35L35.63 12.35Q35.63 13.20 35.24 13.71L35.24 13.71L35.24 13.71Q34.85 14.21 33.98 14.43L33.98 14.43L33.98 14.43Q33.12 14.66 31.64 14.66L31.64 14.66L31.64 15.29L31.64 15.29Q31.93 15.34 32.62 15.34L32.62 15.34ZM32.61 12.00L32.61 12.00Q32.06 12.00 31.85 12.11L31.85 12.11L31.85 12.11Q31.64 12.22 31.64 12.53L31.64 12.53L31.64 13.26L32.14 13.26L32.14 13.26Q32.69 13.26 32.90 13.13L32.90 13.13L32.90 13.13Q33.11 13.01 33.11 12.67L33.11 12.67L33.11 12.00L32.61 12.00ZM38.29 10.18L39.06 11.10L39.06 11.10Q39.89 10.23 41.13 9.97L41.13 9.97L41.30 12.68L41.30 12.68Q40.98 12.71 40.45 12.90L40.45 12.90L40.45 12.90Q39.91 13.09 39.69 13.24L39.69 13.24L39.69 17.18L36.89 17.18L36.89 10.18L38.29 10.18ZM47.67 15.06L47.67 17.18L44.87 17.18L44.87 8.43L48.86 8.43L48.86 8.43Q50.65 8.43 51.44 9.18L51.44 9.18L51.44 9.18Q52.22 9.94 52.22 11.66L52.22 11.66L52.22 11.66Q52.22 13.40 51.45 14.23L51.45 14.23L51.45 14.23Q50.68 15.06 49.07 15.06L49.07 15.06L47.67 15.06ZM47.67 13.03L48.73 13.03L48.73 13.03Q49.04 13.03 49.16 12.91L49.16 12.91L49.16 12.91Q49.28 12.78 49.28 12.45L49.28 12.45L49.28 11.33L49.28 11.33Q49.28 10.99 49.16 10.86L49.16 10.86L49.16 10.86Q49.04 10.74 48.73 10.74L48.73 10.74L47.67 10.74L47.67 13.03ZM56.49 9.97L56.49 9.97Q58.16 9.97 58.93 10.56L58.93 10.56L58.93 10.56Q59.71 11.14 59.71 12.42L59.71 12.42L59.71 17.18L58.31 17.18L57.61 16.48L57.61 16.48Q57.08 16.93 56.47 17.16L56.47 17.16L56.47 17.16Q55.86 17.39 55.23 17.39L55.23 17.39L55.23 17.39Q53.96 17.39 53.37 16.81L53.37 16.81L53.37 16.81Q52.78 16.24 52.78 15.01L52.78 15.01L52.78 15.01Q52.78 14.15 53.14 13.65L53.14 13.65L53.14 13.65Q53.51 13.15 54.31 12.92L54.31 12.92L54.31 12.92Q55.12 12.70 56.49 12.70L56.49 12.70L56.91 12.70L56.91 12.07L56.91 12.07Q56.70 12.01 56.21 12.01L56.21 12.01L56.21 12.01Q54.91 12.01 53.44 12.38L53.44 12.38L53.10 10.44L53.10 10.44Q54.67 9.97 56.49 9.97L56.49 9.97ZM55.94 15.50L55.94 15.50Q56.49 15.50 56.70 15.39L56.70 15.39L56.70 15.39Q56.91 15.27 56.91 14.97L56.91 14.97L56.91 14.10L56.32 14.10L56.32 14.10Q55.78 14.10 55.57 14.22L55.57 14.22L55.57 14.22Q55.36 14.35 55.36 14.69L55.36 14.69L55.36 15.50L55.94 15.50ZM63.84 15.18L63.84 15.18Q64.20 15.25 64.53 15.27L64.53 15.27L64.40 17.16L64.40 17.16Q63.50 17.39 62.85 17.39L62.85 17.39L62.85 17.39Q61.92 17.39 61.48 17.02L61.48 17.02L61.48 17.02Q61.04 16.65 61.04 15.86L61.04 15.86L61.04 8.08L63.84 7.87L63.84 15.18ZM65.11 12.33L65.11 12.33Q65.11 11.12 65.87 10.54L65.87 10.54L65.87 10.54Q66.63 9.97 68.24 9.97L68.24 9.97L68.24 9.97Q69.85 9.97 71.26 10.28L71.26 10.28L70.94 12.21L70.94 12.21Q70.27 12.03 69.30 12.03L69.30 12.03L69.30 12.03Q68.57 12.03 68.12 12.17L68.12 12.17L68.12 12.67L68.12 12.67Q69.43 12.81 70.18 13.08L70.18 13.08L70.18 13.08Q70.94 13.34 71.27 13.80L71.27 13.80L71.27 13.80Q71.61 14.27 71.61 14.99L71.61 14.99L71.61 14.99Q71.61 16.24 70.76 16.81L70.76 16.81L70.76 16.81Q69.92 17.39 68.08 17.39L68.08 17.39L68.08 17.39Q67.27 17.39 66.45 17.26L66.45 17.26L66.45 17.26Q65.63 17.14 65.02 16.91L65.02 16.91L65.37 14.90L65.37 14.90Q66.36 15.33 67.61 15.33L67.61 15.33L67.61 15.33Q67.96 15.33 68.60 15.22L68.60 15.22L68.60 14.67L68.60 14.67Q67.21 14.53 66.47 14.29L66.47 14.29L66.47 14.29Q65.73 14.04 65.42 13.59L65.42 13.59L65.42 13.59Q65.11 13.13 65.11 12.33L65.11 12.33Z"></path></g><defs data-v-fde0c5aa=""><!----></defs><g data-v-fde0c5aa="" id="a98d50cd-c277-455c-b465-2ccb89ed7a3a" stroke="none" fill="#4CBBE5" transform="matrix(1.0389957037897752,0,0,1.0389957037897752,98.05082369614279,66.62971611832819)"><path d="M53.37 42.392a5.33 5.33 0 0 1-.308-.009c-3.557-.206-6.245-3.947-5.991-8.34.252-4.39 3.325-7.79 6.907-7.596 3.557.204 6.245 3.944 5.993 8.338-.246 4.265-3.146 7.607-6.601 7.607zm.301-13.217c-1.973 0-3.708 2.255-3.868 5.026-.164 2.838 1.402 5.334 3.418 5.45l.149.003c1.974 0 3.71-2.255 3.869-5.026.163-2.837-1.403-5.333-3.417-5.449l-.151-.004zM13.25 44.217c-3.683 0-6.796-3.207-7.241-7.461-.223-2.134.267-4.225 1.38-5.888 1.167-1.741 2.87-2.811 4.794-3.013 3.946-.416 7.415 2.928 7.885 7.428.224 2.134-.266 4.226-1.381 5.888-1.166 1.741-2.869 2.81-4.793 3.012a6.082 6.082 0 0 1-.644.034zm-.421-13.659c-.119 0-.239.007-.359.019-1.104.116-2.101.761-2.805 1.813-.76 1.132-1.09 2.582-.933 4.081.31 2.958 2.491 5.238 4.88 4.991 1.103-.116 2.1-.76 2.805-1.814.759-1.132 1.09-2.581.933-4.08-.297-2.809-2.281-5.01-4.521-5.01zM87.261 49.922a6.217 6.217 0 0 1-1.762-.255c-1.855-.55-3.334-1.914-4.162-3.837-.793-1.838-.892-3.985-.281-6.042 1.068-3.601 4.09-6.117 7.35-6.117.597 0 1.189.086 1.761.257 3.735 1.108 5.729 5.54 4.442 9.879-1.068 3.601-4.089 6.115-7.348 6.115zm1.144-13.514c-2.025 0-4.013 1.749-4.727 4.157-.43 1.445-.368 2.931.17 4.182.503 1.166 1.364 1.981 2.428 2.296.318.095.648.142.982.142 2.025 0 4.012-1.748 4.727-4.157.858-2.892-.308-5.797-2.598-6.477a3.426 3.426 0 0 0-.982-.143z"></path><path d="M93.068 56.892c-1.975-3.767-10.33-7.632-14.507-7.418-3.019.158-10.136 3.992-11.657 6.703-.251.446-.491 1.063-.703 1.789-.438-.063-.897-.11-1.344-.168-.116-2.423-.049-5.693.472-6.667.16-.299.525-.898.998-1.678 2.268-3.733 4.524-7.561 5.061-9.727.896-3.623-1.116-12.1-4.186-15.205-1.407-1.424-2.74-1.48-3.608-1.272-3.265.767-2.385 5.276-1.61 9.254.372 1.904.793 4.065.585 5.038-.292 1.372-2.606 4.839-3.871 5.798-1.645 1.25-6.398 1.547-8.877.865-1.897-.523-4.831-4.861-5.24-7.192-.2-1.138.451-3.517 1.025-5.616 1.115-4.082 2.381-8.71-.949-9.85-.786-.27-2.012-.337-3.394.871-3.405 2.976-6.223 12.991-5.42 17.034.399 2.021 1.833 4.405 3.218 6.71.991 1.648 2.014 3.352 2.429 4.591.329.982.54 4.512.606 6.724-5.645.548-10.785 1.551-15.15 2.91a1.37 1.37 0 0 0-.076-.506l-1.076-3.027c1.611.724 3.533 1.12 5.27.242 2.747-1.392 6.993-7.828 6.189-11.225-.354-1.496-1.545-2.358-3.268-2.365h-.013c-2.152 0-3.354 2.29-4.416 4.31-.329.625-.802 1.523-1.116 1.9-.741-.308-2.067-1.464-2.979-2.259-1.317-1.149-2.562-2.236-3.739-2.711-3.365-1.356-9.399 0-12.155 2.029-3.345 2.467-5.251 9.05-4.342 14.992.474 3.099 4.471 5.453 8.358 6.517-.994 1.385-1.534 2.849-1.534 4.372 0 8.781 17.584 15.656 40.03 15.656 22.447 0 40.03-6.875 40.03-15.655 0-.688-.119-1.36-.328-2.021 2.107-3.548 2.889-10.685 1.287-13.743zM21.369 62.51c-1.501-.838-3.663-1.503-5.899-2.185-.924-.283-2.043-.624-2.521-.823-.105-.664.063-2.383.399-3.998l.044-.218a1.369 1.369 0 0 0-2.672-.586c-1.247 5.685.009 6.612.422 6.917.543.402 1.529.714 3.531 1.323.869.266 2.354.719 3.644 1.199.568.211 1.097.427 1.519.633.314.154.571.304.737.442-.425.872-2.088.976-2.846.958-.031 0-.061-.004-.093-.004a12.196 12.196 0 0 1-1.891-.188c-3.69-.634-7.529-2.784-7.812-4.631-.731-4.772.792-10.553 3.259-12.372 2.075-1.527 7.152-2.644 9.508-1.695.749.302 1.926 1.33 2.964 2.235 1.642 1.433 3.193 2.786 4.664 2.981 1.736.237 2.667-1.538 3.653-3.412.409-.778 1.495-2.846 1.994-2.846.556.002.586.132.617.258.439 1.855-2.911 7.216-4.763 8.154-1.753.891-4.824-1.324-5.759-2.167a1.37 1.37 0 0 0-2.207 1.472l2.031 5.714.399 1.127c.056.154.138.288.236.406a42.399 42.399 0 0 0-3.158 1.306zm19.18 14.097h-4.105v-4.029h4.105v4.029zm5.401-6.772h-4.104v-4.027h4.104v4.027zm-1.125-12.588c-.051-1.618-.229-5.833-.742-7.363-.509-1.523-1.562-3.277-2.678-5.132-1.265-2.104-2.573-4.28-2.88-5.833-.625-3.154 1.938-12.169 4.537-14.44.114-.098.505-.411.708-.343.9.308-.294 4.676-.805 6.542-.713 2.606-1.385 5.07-1.081 6.81.538 3.059 3.981 8.469 7.21 9.357 2.849.783 8.651.656 11.259-1.323 1.632-1.239 4.439-5.279 4.894-7.407.322-1.519-.114-3.76-.577-6.131-.348-1.786-1.072-5.5-.448-6.067.34-.082.751.244 1.034.532 2.33 2.357 4.162 9.856 3.477 12.624-.481 1.942-3.36 6.685-4.744 8.963-.51.84-.901 1.488-1.072 1.81-.903 1.691-.896 5.526-.812 7.642a102.878 102.878 0 0 0-10.022-.487c-2.487-.004-4.909.084-7.258.246zM60.672 73.3h-4.105v-4.029h4.105V73.3zm29.468-5.587c-.185.516-.39.978-.612 1.373-.164.29-.335.554-.516.756a8.666 8.666 0 0 1-.373.391c-2.029 1.986-6.721 4.893-9.279 4.506-.671-.102-1.111-.425-1.415-1.037.407-.656 2.797-1.785 4.104-2.403 2.017-.955 3.927-1.86 4.932-3.022a3.68 3.68 0 0 0 .338-.448c.132-.213.258-.465.377-.741.17-.396.325-.846.464-1.324.515-1.771.809-3.908.809-4.965 0-.756-.612-1.368-1.368-1.368-.71 0-1.286.542-1.354 1.233-.004.044-.015.089-.015.134 0 .812-.194 2.116-.468 3.293-2.456-1.494-5.549-2.808-9.142-3.884l.314-.471 1.419-2.13a1.365 1.365 0 1 0-1.53-2.068c-1.312.394-3.735 1.33-5.232 3.188-.044.055-.076.118-.114.174-.255.37-.433.8-.544 1.283a8.301 8.301 0 0 0-.176 1.325 29.686 29.686 0 0 0-.042 1.865c-.003 3.161-.253 4.084-1.106 4.117-.224.009-.465-.021-.748-.485-.747-1.222-.813-3.737-.523-5.954.06-.458.135-.901.223-1.319.103-.485.22-.938.352-1.327.116-.348.244-.648.377-.887.991-1.761 7.061-5.186 9.415-5.308 3.182-.182 10.49 3.191 11.941 5.957.958 1.831.575 6.528-.508 9.546z"></path></g><!----></svg>