<svg data-v-fde0c5aa="" xmlns="http://www.w3.org/2000/svg" viewBox="0 0 300 300" class="font"><!----><defs data-v-fde0c5aa=""><!----></defs><rect data-v-fde0c5aa="" fill="#8143D1" x="0" y="0" width="300px" height="300px" class="logo-background-square"></rect><defs data-v-fde0c5aa=""><!----></defs><g data-v-fde0c5aa="" id="7c9c1485-7176-4c2c-9453-d02418303f63" fill="#4CBBE5" transform="matrix(3.0903215684122713,0,0,3.0903215684122713,38.70206488969154,110.96923971087392)"><path d="M4.33 11.94L7.70 11.94L7.70 16.76L7.70 16.76Q6.99 17.09 6.14 17.24L6.14 17.24L6.14 17.24Q5.29 17.39 4.12 17.39L4.12 17.39L4.12 17.39Q2.65 17.39 1.86 16.98L1.86 16.98L1.86 16.98Q1.08 16.58 0.75 15.60L0.75 15.60L0.75 15.60Q0.42 14.63 0.42 12.81L0.42 12.81L0.42 12.81Q0.42 10.99 0.78 10.02L0.78 10.02L0.78 10.02Q1.15 9.04 2.03 8.63L2.03 8.63L2.03 8.63Q2.91 8.22 4.54 8.22L4.54 8.22L4.54 8.22Q5.25 8.22 6.08 8.33L6.08 8.33L6.08 8.33Q6.92 8.44 7.28 8.58L7.28 8.58L6.93 10.79L6.93 10.79Q6.43 10.68 5.80 10.61L5.80 10.61L5.80 10.61Q5.18 10.53 4.75 10.53L4.75 10.53L4.75 10.53Q3.99 10.53 3.71 10.74L3.71 10.74L3.71 10.74Q3.43 10.95 3.43 11.51L3.43 11.51L3.43 15.13L5.04 15.13L5.04 13.97L4.33 13.97L4.33 11.94ZM12.11 9.97L12.11 9.97Q13.78 9.97 14.55 10.56L14.55 10.56L14.55 10.56Q15.33 11.14 15.33 12.42L15.33 12.42L15.33 17.18L13.93 17.18L13.23 16.48L13.23 16.48Q12.70 16.93 12.09 17.16L12.09 17.16L12.09 17.16Q11.48 17.39 10.85 17.39L10.85 17.39L10.85 17.39Q9.58 17.39 8.99 16.81L8.99 16.81L8.99 16.81Q8.40 16.24 8.40 15.01L8.40 15.01L8.40 15.01Q8.40 14.15 8.76 13.65L8.76 13.65L8.76 13.65Q9.13 13.15 9.93 12.92L9.93 12.92L9.93 12.92Q10.74 12.70 12.11 12.70L12.11 12.70L12.53 12.70L12.53 12.07L12.53 12.07Q12.32 12.01 11.83 12.01L11.83 12.01L11.83 12.01Q10.53 12.01 9.06 12.38L9.06 12.38L8.72 10.44L8.72 10.44Q10.29 9.97 12.11 9.97L12.11 9.97ZM11.56 15.50L11.56 15.50Q12.11 15.50 12.32 15.39L12.32 15.39L12.32 15.39Q12.53 15.27 12.53 14.97L12.53 14.97L12.53 14.10L11.94 14.10L11.94 14.10Q11.40 14.10 11.19 14.22L11.19 14.22L11.19 14.22Q10.98 14.35 10.98 14.69L10.98 14.69L10.98 15.50L11.56 15.50ZM25.48 9.97L25.48 9.97Q26.46 9.97 27.02 10.39L27.02 10.39L27.02 10.39Q27.58 10.82 27.58 11.58L27.58 11.58L27.58 17.18L24.78 17.18L24.78 12.28L24.07 12.28L24.07 12.28Q23.77 12.28 23.65 12.37L23.65 12.37L23.65 12.37Q23.52 12.46 23.52 12.67L23.52 12.67L23.52 17.18L20.72 17.18L20.72 12.28L20.01 12.28L20.01 12.28Q19.71 12.28 19.59 12.37L19.59 12.37L19.59 12.37Q19.46 12.46 19.46 12.67L19.46 12.67L19.46 17.18L16.66 17.18L16.66 10.18L18.06 10.18L18.76 10.88L18.76 10.88Q20.02 9.97 21.42 9.97L21.42 9.97L21.42 9.97Q22.04 9.97 22.49 10.14L22.49 10.14L22.49 10.14Q22.95 10.30 23.20 10.63L23.20 10.63L23.20 10.63Q24.28 9.97 25.48 9.97L25.48 9.97ZM32.62 15.34L32.62 15.34Q33.78 15.34 35.11 14.98L35.11 14.98L35.45 16.91L35.45 16.91Q34.01 17.39 32.34 17.39L32.34 17.39L32.34 17.39Q30.44 17.39 29.53 16.48L29.53 16.48L29.53 16.48Q28.63 15.58 28.63 13.68L28.63 13.68L28.63 13.68Q28.63 11.76 29.53 10.86L29.53 10.86L29.53 10.86Q30.42 9.97 32.34 9.97L32.34 9.97L32.34 9.97Q33.63 9.97 34.33 10.19L34.33 10.19L34.33 10.19Q35.03 10.40 35.33 10.91L35.33 10.91L35.33 10.91Q35.63 11.42 35.63 12.35L35.63 12.35L35.63 12.35Q35.63 13.20 35.24 13.71L35.24 13.71L35.24 13.71Q34.85 14.21 33.98 14.43L33.98 14.43L33.98 14.43Q33.12 14.66 31.64 14.66L31.64 14.66L31.64 15.29L31.64 15.29Q31.93 15.34 32.62 15.34L32.62 15.34ZM32.61 12.00L32.61 12.00Q32.06 12.00 31.85 12.11L31.85 12.11L31.85 12.11Q31.64 12.22 31.64 12.53L31.64 12.53L31.64 13.26L32.14 13.26L32.14 13.26Q32.69 13.26 32.90 13.13L32.90 13.13L32.90 13.13Q33.11 13.01 33.11 12.67L33.11 12.67L33.11 12.00L32.61 12.00ZM38.29 10.18L39.06 11.10L39.06 11.10Q39.89 10.23 41.13 9.97L41.13 9.97L41.30 12.68L41.30 12.68Q40.98 12.71 40.45 12.90L40.45 12.90L40.45 12.90Q39.91 13.09 39.69 13.24L39.69 13.24L39.69 17.18L36.89 17.18L36.89 10.18L38.29 10.18ZM47.67 15.06L47.67 17.18L44.87 17.18L44.87 8.43L48.86 8.43L48.86 8.43Q50.65 8.43 51.44 9.18L51.44 9.18L51.44 9.18Q52.22 9.94 52.22 11.66L52.22 11.66L52.22 11.66Q52.22 13.40 51.45 14.23L51.45 14.23L51.45 14.23Q50.68 15.06 49.07 15.06L49.07 15.06L47.67 15.06ZM47.67 13.03L48.73 13.03L48.73 13.03Q49.04 13.03 49.16 12.91L49.16 12.91L49.16 12.91Q49.28 12.78 49.28 12.45L49.28 12.45L49.28 11.33L49.28 11.33Q49.28 10.99 49.16 10.86L49.16 10.86L49.16 10.86Q49.04 10.74 48.73 10.74L48.73 10.74L47.67 10.74L47.67 13.03ZM56.49 9.97L56.49 9.97Q58.16 9.97 58.93 10.56L58.93 10.56L58.93 10.56Q59.71 11.14 59.71 12.42L59.71 12.42L59.71 17.18L58.31 17.18L57.61 16.48L57.61 16.48Q57.08 16.93 56.47 17.16L56.47 17.16L56.47 17.16Q55.86 17.39 55.23 17.39L55.23 17.39L55.23 17.39Q53.96 17.39 53.37 16.81L53.37 16.81L53.37 16.81Q52.78 16.24 52.78 15.01L52.78 15.01L52.78 15.01Q52.78 14.15 53.14 13.65L53.14 13.65L53.14 13.65Q53.51 13.15 54.31 12.92L54.31 12.92L54.31 12.92Q55.12 12.70 56.49 12.70L56.49 12.70L56.91 12.70L56.91 12.07L56.91 12.07Q56.70 12.01 56.21 12.01L56.21 12.01L56.21 12.01Q54.91 12.01 53.44 12.38L53.44 12.38L53.10 10.44L53.10 10.44Q54.67 9.97 56.49 9.97L56.49 9.97ZM55.94 15.50L55.94 15.50Q56.49 15.50 56.70 15.39L56.70 15.39L56.70 15.39Q56.91 15.27 56.91 14.97L56.91 14.97L56.91 14.10L56.32 14.10L56.32 14.10Q55.78 14.10 55.57 14.22L55.57 14.22L55.57 14.22Q55.36 14.35 55.36 14.69L55.36 14.69L55.36 15.50L55.94 15.50ZM63.84 15.18L63.84 15.18Q64.20 15.25 64.53 15.27L64.53 15.27L64.40 17.16L64.40 17.16Q63.50 17.39 62.85 17.39L62.85 17.39L62.85 17.39Q61.92 17.39 61.48 17.02L61.48 17.02L61.48 17.02Q61.04 16.65 61.04 15.86L61.04 15.86L61.04 8.08L63.84 7.87L63.84 15.18ZM65.11 12.33L65.11 12.33Q65.11 11.12 65.87 10.54L65.87 10.54L65.87 10.54Q66.63 9.97 68.24 9.97L68.24 9.97L68.24 9.97Q69.85 9.97 71.26 10.28L71.26 10.28L70.94 12.21L70.94 12.21Q70.27 12.03 69.30 12.03L69.30 12.03L69.30 12.03Q68.57 12.03 68.12 12.17L68.12 12.17L68.12 12.67L68.12 12.67Q69.43 12.81 70.18 13.08L70.18 13.08L70.18 13.08Q70.94 13.34 71.27 13.80L71.27 13.80L71.27 13.80Q71.61 14.27 71.61 14.99L71.61 14.99L71.61 14.99Q71.61 16.24 70.76 16.81L70.76 16.81L70.76 16.81Q69.92 17.39 68.08 17.39L68.08 17.39L68.08 17.39Q67.27 17.39 66.45 17.26L66.45 17.26L66.45 17.26Q65.63 17.14 65.02 16.91L65.02 16.91L65.37 14.90L65.37 14.90Q66.36 15.33 67.61 15.33L67.61 15.33L67.61 15.33Q67.96 15.33 68.60 15.22L68.60 15.22L68.60 14.67L68.60 14.67Q67.21 14.53 66.47 14.29L66.47 14.29L66.47 14.29Q65.73 14.04 65.42 13.59L65.42 13.59L65.42 13.59Q65.11 13.13 65.11 12.33L65.11 12.33Z"></path></g><!----><!----></svg>